<svg width="96" height="67" viewBox="0 0 96 67" fill="none" xmlns="http://www.w3.org/2000/svg">
<path d="M6.69095 0H59.0115C60.7854 0.00199362 62.4861 0.706223 63.7405 1.95819C64.9949 3.21015 65.7004 4.90761 65.7024 6.67815V35.2468C65.7004 37.0173 64.9949 38.7148 63.7405 39.9667C62.4861 41.2187 60.7854 41.9229 59.0115 41.9249H6.69095C4.91701 41.9229 3.2163 41.2187 1.96193 39.9667C0.70757 38.7148 0.00199339 37.0173 0 35.2468V6.67815C0.00199302 4.90761 0.70757 3.21015 1.96193 1.95819C3.2163 0.706223 4.91701 0.00199362 6.69095 0Z" fill="#F2F2F2"/>
<path d="M6.69087 1.92236H59.0115C60.2747 1.92378 61.4859 2.42527 62.3791 3.31682C63.2724 4.20837 63.7748 5.41717 63.7763 6.67801V35.2466C63.7748 36.5075 63.2724 37.7163 62.3791 38.6078C61.4859 39.4994 60.2747 40.0009 59.0115 40.0023H6.69087C5.42761 40.0009 4.21651 39.4994 3.32326 38.6078C2.43001 37.7163 1.92756 36.5075 1.92615 35.2466V6.67801C1.92756 5.41718 2.43001 4.20839 3.32326 3.31684C4.21651 2.42529 5.42761 1.92379 6.69087 1.92236Z" fill="white"/>
<path d="M7.20143 52.1536C7.04355 52.1531 6.88731 52.1216 6.74166 52.0607C6.52428 51.9735 6.33833 51.8229 6.20816 51.6284C6.078 51.434 6.00968 51.2049 6.01215 50.9711V41.0951L19.2039 40.6521L8.02955 51.8051C7.92149 51.915 7.79265 52.0024 7.6505 52.0622C7.50834 52.122 7.3557 52.1531 7.20143 52.1536Z" fill="#F2F2F2"/>
<path d="M52.4587 9.02856H13.1162C11.5411 9.02856 10.2642 10.303 10.2642 11.8752V11.8752C10.2642 13.4473 11.5411 14.7218 13.1162 14.7218H52.4587C54.0338 14.7218 55.3107 13.4473 55.3107 11.8752C55.3107 10.303 54.0338 9.02856 52.4587 9.02856Z" fill="#F2F2F2"/>
<path d="M52.5224 18.1157H13.18C11.6049 18.1157 10.3279 19.3902 10.3279 20.9623V20.9623C10.3279 22.5345 11.6049 23.809 13.18 23.809H52.5224C54.0976 23.809 55.3745 22.5345 55.3745 20.9623C55.3745 19.3902 54.0976 18.1157 52.5224 18.1157Z" fill="#F2F2F2"/>
<path d="M52.5862 27.2031H13.2437C11.6686 27.2031 10.3917 28.4776 10.3917 30.0497V30.0497C10.3917 31.6219 11.6686 32.8964 13.2437 32.8964H52.5862C54.1613 32.8964 55.4382 31.6219 55.4382 30.0497C55.4382 28.4776 54.1613 27.2031 52.5862 27.2031Z" fill="#F2F2F2"/>
<path d="M89.3091 14.5703H36.9886C35.2146 14.5723 33.5139 15.2765 32.2595 16.5285C31.0052 17.7805 30.2996 19.4779 30.2976 21.2485V49.8171C30.2996 51.5876 31.0052 53.2851 32.2595 54.537C33.5139 55.789 35.2146 56.4932 36.9886 56.4952H89.3091C91.083 56.4932 92.7837 55.789 94.0381 54.537C95.2924 53.2851 95.998 51.5876 96 49.8171V21.2485C95.998 19.4779 95.2924 17.7805 94.0381 16.5285C92.7837 15.2765 91.083 14.5723 89.3091 14.5703Z" fill="#E6E6E6"/>
<path d="M89.3092 16.4929H36.9885C35.7253 16.4943 34.5142 16.9958 33.6209 17.8874C32.7276 18.7789 32.2252 19.9877 32.2238 21.2486V49.8172C32.2252 51.078 32.7276 52.2868 33.6209 53.1784C34.5142 54.0699 35.7253 54.5714 36.9885 54.5728H89.3092C90.5724 54.5714 91.7835 54.0699 92.6768 53.1784C93.57 52.2868 94.0725 51.078 94.0739 49.8172V21.2486C94.0725 19.9877 93.57 18.7789 92.6768 17.8874C91.7835 16.9958 90.5724 16.4943 89.3092 16.4929Z" fill="white"/>
<path d="M85.3289 66.3754L74.1545 55.2224L87.3463 55.6654V65.5414C87.3487 65.7752 87.2804 66.0043 87.1503 66.1988C87.0201 66.3932 86.8341 66.5439 86.6168 66.6311C86.4711 66.6919 86.3149 66.7234 86.157 66.7239C86.0027 66.7234 85.8501 66.6923 85.7079 66.6325C85.5658 66.5727 85.4369 66.4853 85.3289 66.3754Z" fill="#E6E6E6"/>
<path d="M51.6091 39.1409C53.6055 39.1409 55.224 37.5256 55.224 35.533C55.224 33.5404 53.6055 31.925 51.6091 31.925C49.6127 31.925 47.9943 33.5404 47.9943 35.533C47.9943 37.5256 49.6127 39.1409 51.6091 39.1409Z" fill="#63E2DB"/>
<path d="M63.1488 39.1409C65.1452 39.1409 66.7636 37.5256 66.7636 35.533C66.7636 33.5404 65.1452 31.925 63.1488 31.925C61.1524 31.925 59.5339 33.5404 59.5339 35.533C59.5339 37.5256 61.1524 39.1409 63.1488 39.1409Z" fill="#63E2DB"/>
<path d="M74.6885 39.1409C76.6849 39.1409 78.3034 37.5256 78.3034 35.533C78.3034 33.5404 76.6849 31.925 74.6885 31.925C72.6921 31.925 71.0737 33.5404 71.0737 35.533C71.0737 37.5256 72.6921 39.1409 74.6885 39.1409Z" fill="#63E2DB"/>
</svg>
