<svg width="96" height="86" viewBox="0 0 96 86" fill="none" xmlns="http://www.w3.org/2000/svg">
<g clip-path="url(#clip0)">
<path d="M89.8281 46.8551L21.1219 76.3265C20.6526 76.5271 20.1232 76.533 19.6496 76.3427C19.1761 76.1525 18.7972 75.7816 18.596 75.3116L0.471289 32.834C0.324672 32.4893 0.320401 32.1004 0.459413 31.7525C0.598426 31.4047 0.86937 31.1264 1.2128 30.9786L70.8427 1.11099C71.1924 0.961447 71.587 0.957102 71.9399 1.0989C72.2928 1.24071 72.5752 1.51708 72.7252 1.86738L90.8403 44.3226C91.0404 44.7931 91.0462 45.3239 90.8565 45.7987C90.6667 46.2735 90.2969 46.6534 89.8281 46.8551Z" fill="#F2F2F2"/>
<path d="M86.6511 45.5688L22.6187 73.0354C21.68 73.438 20.6105 73.0486 20.2344 72.1673L4.4512 35.1772C4.17232 34.5236 4.51129 33.7491 5.20684 33.4508L70.1001 5.61493C70.8072 5.31162 71.6131 5.60539 71.8965 6.26974L87.6714 43.2403C88.0475 44.1216 87.5898 45.1662 86.6511 45.5688Z" fill="white"/>
<path d="M72.7858 2.07703L0.541366 33.0662L0.15606 32.1631C-0.0445774 31.691 -0.0502493 31.1584 0.140288 30.6821C0.330825 30.2058 0.702012 29.8248 1.17242 29.6225L69.866 0.156547C70.3367 -0.0449167 70.8679 -0.0509351 71.3431 0.139811C71.8183 0.330557 72.1985 0.702491 72.4005 1.17402L72.7858 2.07703Z" fill="#63E2DB"/>
<path d="M3.19631 30.8442C3.47217 30.8442 3.69581 30.6199 3.69581 30.3433C3.69581 30.0668 3.47217 29.8425 3.19631 29.8425C2.92044 29.8425 2.69681 30.0668 2.69681 30.3433C2.69681 30.6199 2.92044 30.8442 3.19631 30.8442Z" fill="white"/>
<path d="M4.93947 30.0964C5.21534 30.0964 5.43897 29.8721 5.43897 29.5955C5.43897 29.319 5.21534 29.0947 4.93947 29.0947C4.66361 29.0947 4.43997 29.319 4.43997 29.5955C4.43997 29.8721 4.66361 30.0964 4.93947 30.0964Z" fill="white"/>
<path d="M6.68264 29.3488C6.9585 29.3488 7.18214 29.1246 7.18214 28.848C7.18214 28.5714 6.9585 28.3472 6.68264 28.3472C6.40677 28.3472 6.18314 28.5714 6.18314 28.848C6.18314 29.1246 6.40677 29.3488 6.68264 29.3488Z" fill="white"/>
<path d="M35.4371 42.5332L26.8977 46.1962C26.4285 46.3968 25.899 46.4026 25.4255 46.2124C24.952 46.0221 24.5731 45.6513 24.3719 45.1813L19.658 34.1337C19.4579 33.6632 19.4521 33.1324 19.6419 32.6576C19.8316 32.1829 20.2015 31.8029 20.6702 31.6012L29.2096 27.9383C29.6789 27.7376 30.2083 27.7318 30.6818 27.922C31.1553 28.1123 31.5343 28.4831 31.7354 28.9531L36.4493 40.0007C36.6494 40.4712 36.6552 41.002 36.4655 41.4768C36.2757 41.9516 35.9059 42.3315 35.4371 42.5332Z" fill="#F2F2F2"/>
<path d="M49.8864 36.3352L41.347 39.9982C40.8778 40.1988 40.3483 40.2046 39.8748 40.0144C39.4013 39.8241 39.0224 39.4533 38.8212 38.9833L34.1073 27.9357C33.9072 27.4652 33.9014 26.9344 34.0911 26.4596C34.2809 25.9849 34.6507 25.6049 35.1195 25.4032L43.6589 21.7403C44.1281 21.5396 44.6576 21.5338 45.1311 21.724C45.6046 21.9143 45.9835 22.2851 46.1847 22.7551L50.8986 33.8027C51.0987 34.2732 51.1045 34.804 50.9148 35.2788C50.725 35.7536 50.3552 36.1335 49.8864 36.3352Z" fill="#F2F2F2"/>
<path d="M64.3357 30.1372L55.7963 33.8002C55.327 34.0008 54.7976 34.0067 54.3241 33.8164C53.8505 33.6261 53.4716 33.2553 53.2704 32.7853L48.5566 21.7377C48.3564 21.2673 48.3506 20.7364 48.5404 20.2616C48.7302 19.7869 49.1 19.407 49.5688 19.2052L58.1082 15.5423C58.5774 15.3416 59.1069 15.3358 59.5804 15.526C60.0539 15.7163 60.4328 16.0871 60.634 16.5571L65.3479 27.6047C65.548 28.0752 65.5538 28.606 65.3641 29.0808C65.1743 29.5556 64.8045 29.9355 64.3357 30.1372Z" fill="#F2F2F2"/>
<path d="M42.7301 59.625L34.1907 63.288C33.7214 63.4886 33.192 63.4944 32.7185 63.3042C32.245 63.1139 31.866 62.7431 31.6648 62.2731L26.951 51.2255C26.7509 50.755 26.745 50.2242 26.9348 49.7494C27.1246 49.2747 27.4944 48.8947 27.9632 48.693L36.5026 45.0301C36.9718 44.8294 37.5013 44.8236 37.9748 45.0138C38.4483 45.2041 38.8272 45.5749 39.0284 46.0449L43.7423 57.0925C43.9424 57.563 43.9482 58.0938 43.7584 58.5686C43.5687 59.0434 43.1989 59.4233 42.7301 59.625Z" fill="#F2F2F2"/>
<path d="M57.1794 53.427L48.64 57.09C48.1707 57.2906 47.6413 57.2965 47.1677 57.1062C46.6942 56.9159 46.3153 56.5451 46.1141 56.0751L41.4002 45.0275C41.2001 44.5571 41.1943 44.0262 41.3841 43.5514C41.5738 43.0767 41.9437 42.6968 42.4124 42.495L50.9519 38.8321C51.4211 38.6314 51.9505 38.6256 52.4241 38.8158C52.8976 39.0061 53.2765 39.3769 53.4777 39.8469L58.1916 50.8945C58.3917 51.365 58.3975 51.8958 58.2077 52.3706C58.018 52.8454 57.6481 53.2253 57.1794 53.427Z" fill="#F2F2F2"/>
<path d="M71.6286 47.229L63.0892 50.892C62.62 51.0926 62.0905 51.0985 61.617 50.9082C61.1435 50.718 60.7646 50.3471 60.5634 49.8771L55.8495 38.8295C55.6494 38.3591 55.6436 37.8282 55.8333 37.3534C56.0231 36.8787 56.3929 36.4988 56.8617 36.297L65.4011 32.6341C65.8704 32.4334 66.3998 32.4276 66.8733 32.6178C67.3468 32.8081 67.7258 33.1789 67.9269 33.6489L72.6408 44.6965C72.8409 45.167 72.8467 45.6978 72.657 46.1726C72.4672 46.6474 72.0974 47.0273 71.6286 47.229Z" fill="#F2F2F2"/>
<path d="M94.0759 86.0001H19.3461C18.836 85.9995 18.3469 85.7961 17.9862 85.4344C17.6255 85.0727 17.4226 84.5824 17.422 84.0709V37.8692C17.4224 37.4945 17.5711 37.1352 17.8353 36.8703C18.0996 36.6053 18.4579 36.4562 18.8316 36.4558H94.566C94.9462 36.4562 95.3107 36.6079 95.5795 36.8774C95.8484 37.147 95.9996 37.5124 96 37.8936V84.0709C95.9994 84.5824 95.7965 85.0727 95.4358 85.4344C95.0751 85.7961 94.586 85.9995 94.0759 86.0001Z" fill="#E6E6E6"/>
<path d="M91.6597 83.5642H22.0135C20.9926 83.5642 20.162 82.7843 20.162 81.8258V41.5927C20.162 40.8818 20.7775 40.3035 21.534 40.3035H92.1165C92.8856 40.3035 93.5112 40.8914 93.5112 41.614V81.8258C93.5112 82.7843 92.6806 83.5642 91.6597 83.5642Z" fill="white"/>
<path d="M95.9732 38.1093H17.395V37.1272C17.3958 36.614 17.5995 36.122 17.9615 35.7593C18.3235 35.3965 18.8143 35.1926 19.3261 35.1921H94.0421C94.5539 35.1926 95.0447 35.3965 95.4067 35.7593C95.7687 36.122 95.9725 36.614 95.9732 37.1272V38.1093Z" fill="#63E2DB"/>
<path d="M20.9045 37.1547C21.1804 37.1547 21.404 36.9305 21.404 36.6539C21.404 36.3773 21.1804 36.1531 20.9045 36.1531C20.6287 36.1531 20.405 36.3773 20.405 36.6539C20.405 36.9305 20.6287 37.1547 20.9045 37.1547Z" fill="white"/>
<path d="M22.8005 37.1547C23.0764 37.1547 23.3 36.9305 23.3 36.6539C23.3 36.3773 23.0764 36.1531 22.8005 36.1531C22.5246 36.1531 22.301 36.3773 22.301 36.6539C22.301 36.9305 22.5246 37.1547 22.8005 37.1547Z" fill="white"/>
<path d="M24.6965 37.1547C24.9724 37.1547 25.196 36.9305 25.196 36.6539C25.196 36.3773 24.9724 36.1531 24.6965 36.1531C24.4206 36.1531 24.197 36.3773 24.197 36.6539C24.197 36.9305 24.4206 37.1547 24.6965 37.1547Z" fill="white"/>
<path d="M87.8895 51.5977H54.8914C53.5703 51.5977 52.4993 52.6715 52.4993 53.9961V53.9962C52.4993 55.3208 53.5703 56.3946 54.8914 56.3946H87.8895C89.2107 56.3946 90.2817 55.3208 90.2817 53.9961C90.2817 52.6715 89.2107 51.5977 87.8895 51.5977Z" fill="#E6E6E6"/>
<path d="M87.8895 59.5354H54.8914C53.5703 59.5354 52.4993 60.6092 52.4993 61.9339V61.9339C52.4993 63.2585 53.5703 64.3324 54.8914 64.3324H87.8895C89.2107 64.3324 90.2817 63.2585 90.2817 61.9339C90.2817 60.6092 89.2107 59.5354 87.8895 59.5354Z" fill="#E6E6E6"/>
<path d="M87.8895 67.4729H54.8914C53.5703 67.4729 52.4993 68.5467 52.4993 69.8714V69.8714C52.4993 71.196 53.5703 72.2699 54.8914 72.2699H87.8895C89.2107 72.2699 90.2817 71.196 90.2817 69.8714C90.2817 68.5467 89.2107 67.4729 87.8895 67.4729Z" fill="#E6E6E6"/>
<path d="M49.3961 61.934C49.3961 64.4778 48.6438 66.9644 47.2343 69.0794C45.8248 71.1944 43.8215 72.8429 41.4776 73.8163C39.1337 74.7898 36.5545 75.0445 34.0662 74.5482C31.578 74.052 29.2924 72.827 27.4984 71.0284C25.7045 69.2297 24.4828 66.938 23.9878 64.4432C23.4929 61.9483 23.7469 59.3623 24.7178 57.0122C25.6887 54.6621 27.3328 52.6535 29.4422 51.2403C31.5517 49.8271 34.0317 49.0728 36.5687 49.0728C39.9704 49.0738 43.2325 50.4292 45.6379 52.8409C48.0432 55.2527 49.395 58.5234 49.3961 61.934Z" fill="white"/>
<path d="M42.4974 64.1345C42.3572 72.36 30.1543 72.3587 30.0154 64.1342C30.1554 55.909 42.3584 55.9103 42.4974 64.1345Z" fill="#63E2DB"/>
<path d="M36.0086 66.6876L36.0021 66.4537C37.6096 66.6689 37.9558 64.6715 36.3347 65.4182L36.7047 62.7068L36.9358 62.7385L36.621 65.045C38.3279 64.7902 37.6965 66.9213 36.0086 66.6876Z" fill="#21293C"/>
<path d="M39.3346 62.9375H38.0785V63.1713H39.3346V62.9375Z" fill="#21293C"/>
<path d="M35.3697 62.9375H34.1136V63.1713H35.3697V62.9375Z" fill="#21293C"/>
<path d="M38.2795 72.8836C38.5244 71.2268 36.5898 71.5542 35.5659 71.5378C35.4008 71.5383 35.2379 71.5758 35.0891 71.6474C34.9403 71.719 34.8093 71.823 34.7056 71.9518C34.6019 72.0806 34.5282 72.231 34.4898 72.392C34.4515 72.553 34.4494 72.7205 34.4838 72.8824C33.6913 73.128 32.9575 73.5339 32.3276 74.075C34.982 75.003 37.8663 75.0351 40.5406 74.1662C39.8887 73.5792 39.1171 73.1415 38.2795 72.8836Z" fill="#21293C"/>
<path d="M33.3222 61.175C34.4788 60.5048 35.8814 61.019 37.0762 61.3001C39.3429 61.9987 42.5216 61.1239 42.7972 58.4165C43.0841 55.8986 39.6488 54.4953 38.5508 57.0014L38.8705 56.9595C35.3095 51.6533 29.1153 51.8546 29.1561 59.1496C29.1429 59.3749 29.4927 59.3742 29.5058 59.1494C29.3747 54.8506 32.2122 51.9121 36.2233 54.6747C37.1412 55.3462 37.884 56.2356 38.5684 57.1365C38.9862 57.6059 39.0769 55.5844 41.0763 56.1139C43.2766 56.9686 42.5587 60.1276 40.592 60.8211C38.1619 62.0659 35.5301 59.6524 33.1456 60.872C33.1072 60.8963 33.0797 60.9346 33.069 60.9788C33.0582 61.023 33.065 61.0697 33.0879 61.109C33.1108 61.1483 33.148 61.1772 33.1917 61.1895C33.2355 61.2018 33.2822 61.1966 33.3222 61.175V61.175Z" fill="#21293C"/>
<path d="M36.5687 75.1458C33.2562 75.143 30.0664 73.8883 27.6356 71.632C25.2047 69.3757 23.7115 66.2836 23.4537 62.9724C23.1958 59.6611 24.1923 56.3741 26.2445 53.7669C28.2966 51.1597 31.2535 49.4239 34.5255 48.9056C37.7975 48.3874 41.1441 49.1248 43.8978 50.9709C46.6516 52.8169 48.6101 55.6359 49.3828 58.8656C50.1555 62.0953 49.6855 65.4984 48.0667 68.3961C46.4479 71.2938 43.7991 73.4732 40.6487 74.4996C39.3312 74.9292 37.9542 75.1473 36.5687 75.1458ZM36.5687 49.4232C34.1004 49.4229 31.6874 50.1564 29.6349 51.5312C27.5825 52.9059 25.9827 54.8601 25.0379 57.1465C24.0932 59.4329 23.8459 61.9488 24.3274 64.3761C24.8088 66.8034 25.9974 69.0331 27.7428 70.7831C29.4881 72.533 31.7119 73.7248 34.1328 74.2075C36.5537 74.6902 39.0631 74.4423 41.3434 73.4951C43.6238 72.5478 45.5728 70.9438 46.9439 68.8859C48.315 66.828 49.0466 64.4086 49.0463 61.9338C49.0425 58.6169 47.7267 55.437 45.3876 53.0916C43.0484 50.7462 39.8768 49.427 36.5687 49.4232Z" fill="#63E2DB"/>
</g>
<defs>
<clipPath id="clip0">
<rect width="96" height="86" fill="white"/>
</clipPath>
</defs>
</svg>
