<svg width="96" height="62" viewBox="0 0 96 62" fill="none" xmlns="http://www.w3.org/2000/svg">
<path d="M30.9416 29.8149L20.5124 34.2848C19.9394 34.5296 19.2927 34.5367 18.7144 34.3046C18.1361 34.0724 17.6734 33.6199 17.4276 33.0463L11.6706 19.5651C11.4262 18.991 11.4191 18.3432 11.6509 17.7638C11.8826 17.1845 12.3343 16.7209 12.9068 16.4747L23.3359 12.0048C23.909 11.76 24.5556 11.7529 25.1339 11.985C25.7122 12.2172 26.175 12.6697 26.4207 13.2433L32.1778 26.7245C32.4222 27.2986 32.4293 27.9464 32.1975 28.5258C31.9658 29.1051 31.5141 29.5688 30.9416 29.8149Z" fill="#F2F2F2"/>
<path d="M48.5885 22.2519L38.1593 26.7218C37.5862 26.9666 36.9396 26.9738 36.3613 26.7416C35.783 26.5094 35.3203 26.0569 35.0745 25.4834L29.3175 12.0021C29.0731 11.428 29.066 10.7802 29.2978 10.2009C29.5295 9.6215 29.9812 9.15789 30.5537 8.91173L40.9828 4.44184C41.5559 4.197 42.2025 4.18989 42.7808 4.42206C43.3591 4.65423 43.8219 5.10672 44.0676 5.68028L49.8247 19.1615C50.0691 19.7356 50.0762 20.3834 49.8444 20.9628C49.6127 21.5422 49.161 22.0058 48.5885 22.2519Z" fill="#F2F2F2"/>
<path d="M93.6501 61.9999H2.3829C1.75988 61.9992 1.16258 61.7509 0.722042 61.3096C0.281502 60.8682 0.0336971 60.2699 0.0329933 59.6457V3.26624C0.033501 2.80898 0.215038 2.37059 0.537777 2.04725C0.860517 1.72391 1.2981 1.54203 1.75454 1.5415H94.2487C94.713 1.54203 95.1582 1.72706 95.4865 2.05599C95.8148 2.38492 95.9995 2.83089 96 3.29606V59.6457C95.9993 60.2699 95.7515 60.8682 95.311 61.3096C94.8704 61.7509 94.2731 61.9992 93.6501 61.9999Z" fill="#E6E6E6"/>
<path d="M90.6992 59.0279H5.64054C4.39367 59.0279 3.37928 58.0763 3.37928 56.9066V7.81059C3.37928 6.9431 4.13097 6.2373 5.05493 6.2373H91.2571C92.1964 6.2373 92.9605 6.95473 92.9605 7.8365V56.9066C92.9605 58.0763 91.9461 59.0279 90.6992 59.0279Z" fill="white"/>
<path d="M95.9673 3.55982H0V2.36128C0.000903454 1.73505 0.249717 1.13476 0.69186 0.692085C1.134 0.249413 1.73337 0.000517367 2.35846 0H93.6088C94.2339 0.000516618 94.8333 0.249413 95.2754 0.692085C95.7175 1.13476 95.9664 1.73505 95.9673 2.36128V3.55982Z" fill="#63E2DB"/>
<path d="M4.28667 2.39466C4.62387 2.39466 4.89722 2.12104 4.89722 1.78351C4.89722 1.44598 4.62387 1.17236 4.28667 1.17236C3.94948 1.17236 3.67613 1.44598 3.67613 1.78351C3.67613 2.12104 3.94948 2.39466 4.28667 2.39466Z" fill="white"/>
<path d="M6.60219 2.39466C6.93938 2.39466 7.21273 2.12104 7.21273 1.78351C7.21273 1.44598 6.93938 1.17236 6.60219 1.17236C6.26499 1.17236 5.99164 1.44598 5.99164 1.78351C5.99164 2.12104 6.26499 2.39466 6.60219 2.39466Z" fill="white"/>
<path d="M8.91776 2.39466C9.25496 2.39466 9.52831 2.12104 9.52831 1.78351C9.52831 1.44598 9.25496 1.17236 8.91776 1.17236C8.58057 1.17236 8.30722 1.44598 8.30722 1.78351C8.30722 2.12104 8.58057 2.39466 8.91776 2.39466Z" fill="white"/>
<path d="M86.0947 20.0195H45.7942C44.1807 20.0195 42.8727 21.3299 42.8727 22.9464V22.9464C42.8727 24.5628 44.1807 25.8732 45.7942 25.8732H86.0947C87.7082 25.8732 89.0162 24.5628 89.0162 22.9464C89.0162 21.3299 87.7082 20.0195 86.0947 20.0195Z" fill="#E6E6E6"/>
<path d="M86.0947 29.7056H45.7942C44.1807 29.7056 42.8727 31.016 42.8727 32.6324V32.6324C42.8727 34.2489 44.1807 35.5593 45.7942 35.5593H86.0947C87.7082 35.5593 89.0162 34.2489 89.0162 32.6324C89.0162 31.016 87.7082 29.7056 86.0947 29.7056Z" fill="#E6E6E6"/>
<path d="M86.0947 39.3921H45.7942C44.1807 39.3921 42.8727 40.7025 42.8727 42.3189V42.3189C42.8727 43.9354 44.1807 45.2458 45.7942 45.2458H86.0947C87.7082 45.2458 89.0162 43.9354 89.0162 42.3189C89.0162 40.7025 87.7082 39.3921 86.0947 39.3921Z" fill="#E6E6E6"/>
<path d="M39.0828 32.6325C39.0828 35.7366 38.164 38.7709 36.4426 41.3519C34.7212 43.9328 32.2745 45.9444 29.4119 47.1323C26.5493 48.3202 23.3994 48.631 20.3605 48.0254C17.3216 47.4198 14.5302 45.9251 12.3392 43.7302C10.1483 41.5353 8.65624 38.7388 8.05176 35.6943C7.44729 32.6499 7.75753 29.4943 8.94325 26.6265C10.129 23.7587 12.1369 21.3075 14.7132 19.583C17.2895 17.8585 20.3183 16.938 23.4168 16.938C27.5712 16.9393 31.5552 18.5932 34.4929 21.5363C37.4305 24.4793 39.0815 28.4705 39.0828 32.6325Z" fill="white"/>
<path d="M30.6574 35.3181C30.4863 45.3556 15.5828 45.354 15.4131 35.3178C15.5842 25.2806 30.4877 25.2822 30.6574 35.3181Z" fill="#63E2DB"/>
<path d="M22.7327 38.4337L22.7248 38.1483C24.6884 38.4109 25.1113 35.9734 23.131 36.8847L23.583 33.5759L23.8653 33.6147L23.4808 36.4292C25.5659 36.1183 24.7946 38.7188 22.7327 38.4337Z" fill="#21293C"/>
<path d="M26.7959 33.8574H25.2606V34.1424H26.7959V33.8574Z" fill="#21293C"/>
<path d="M21.9537 33.8574H20.4184V34.1424H21.9537V33.8574Z" fill="#21293C"/>
<path d="M25.5061 45.9941C25.8052 43.9724 23.4425 44.3719 22.192 44.3519C21.9904 44.3525 21.7914 44.3982 21.6097 44.4856C21.4279 44.573 21.2679 44.6999 21.1413 44.8571C21.0147 45.0143 20.9247 45.1978 20.8778 45.3943C20.8309 45.5907 20.8284 45.7952 20.8704 45.9927C19.9025 46.2924 19.0063 46.7877 18.237 47.448C21.4789 48.5805 25.0015 48.6196 28.2676 47.5593C27.4714 46.843 26.529 46.3089 25.5061 45.9941Z" fill="#21293C"/>
<path d="M19.4518 31.7065C20.8644 30.8886 22.5774 31.5161 24.0365 31.8591C26.8049 32.7117 30.687 31.6441 31.0237 28.3403C31.374 25.2678 27.1785 23.5554 25.8375 26.6134L26.228 26.5623C21.879 20.0873 14.314 20.3329 14.3638 29.2349C14.3476 29.5099 14.7749 29.5089 14.7909 29.2347C14.6308 23.9889 18.0963 20.403 22.9949 23.7742C24.116 24.5936 25.0232 25.679 25.859 26.7783C26.3692 27.3511 26.4801 24.8844 28.9219 25.5305C31.6091 26.5735 30.7323 30.4284 28.3304 31.2746C25.3626 32.7936 22.1484 29.8485 19.2362 31.3367C19.1893 31.3664 19.1557 31.4131 19.1426 31.4671C19.1294 31.521 19.1377 31.578 19.1657 31.626C19.1937 31.6739 19.2391 31.7091 19.2925 31.7242C19.3459 31.7392 19.403 31.7328 19.4518 31.7065V31.7065Z" fill="#21293C"/>
<path d="M23.4168 48.7551C19.3712 48.7517 15.4755 47.2206 12.5068 44.4673C9.538 41.7139 7.71431 37.9407 7.39942 33.9C7.08452 29.8593 8.30157 25.8482 10.8078 22.6666C13.3141 19.4851 16.9254 17.3669 20.9214 16.7345C24.9175 16.1021 29.0047 17.002 32.3678 19.2547C35.7309 21.5074 38.1229 24.9474 39.0665 28.8886C40.0102 32.8297 39.4363 36.9824 37.4592 40.5185C35.4822 44.0545 32.2473 46.714 28.3997 47.9665C26.7906 48.4908 25.1089 48.7569 23.4168 48.7551ZM23.4168 17.3661C20.4023 17.3656 17.4553 18.2608 14.9486 19.9384C12.4419 21.616 10.4881 24.0006 9.33428 26.7907C8.18046 29.5807 7.87846 32.6509 8.46646 35.613C9.05447 38.575 10.5061 41.2958 12.6377 43.4313C14.7693 45.5668 17.4852 47.021 20.4418 47.6101C23.3985 48.1992 26.4631 47.8966 29.2481 46.7407C32.0331 45.5848 34.4134 43.6274 36.0879 41.1162C37.7625 38.6049 38.656 35.6526 38.6556 32.6326C38.651 28.585 37.0441 24.7046 34.1872 21.8426C31.3304 18.9806 27.457 17.3707 23.4168 17.3661Z" fill="#63E2DB"/>
</svg>
